<svg 
          width="11.15628433227539" 
          height="17.764039993286133" fill="none" 
          xmlns="http://www.w3.org/2000/svg">
          <path d="M 11.15628433227539 1.9995979070663452 L 11.15628433227539 0.18787917494773865 C 11.15628433227539 0.030847929418087006 10.975815005600452 -0.05587089993059635 10.8539400100708 0.04022284783422947 L 0.28831493854522705 8.292566299438477 C 0.19854521937668324 8.362378070130944 0.12590685859322548 8.451771453022957 0.07594048976898193 8.553926467895508 C 0.025974120944738388 8.656081482768059 -6.661338147750939e-16 8.768299788236618 0 8.882019996643066 C -6.661338147750939e-16 8.995740205049515 0.025974120944738388 9.107958510518074 0.07594048976898193 9.210113525390625 C 0.12590685859322548 9.312268540263176 0.19854521937668324 9.401660492643714 0.28831493854522705 9.471472263336182 L 10.8539400100708 17.723816871643066 C 10.97815876454115 17.819910619407892 11.15628433227539 17.733192153275013 11.15628433227539 17.57616090774536 L 11.15628433227539 15.764441013336182 C 11.15628433227539 15.649597261101007 11.102378653362393 15.539441585540771 11.01331615447998 15.469129085540771 L 2.5758150815963745 8.883191585540771 L 11.01331615447998 2.294910192489624 C 11.102378653362393 2.224597692489624 11.15628433227539 2.1144416593015194 11.15628433227539 1.9995979070663452 L 11.15628433227539 1.9995979070663452 Z" fill="rgb(0,0,0)"/>
        </svg>