<svg 
          width="19.945375442504883" 
          height="17.993999481201172" fill="none" 
          xmlns="http://www.w3.org/2000/svg">
          <path d="M 9.973125457763672 1.557999849319458 C 8.88352656364441 0.5561039447784424 7.457334995269775 0.00004655353768612258 5.97712516784668 0 C 5.193664610385895 0.0008157021948136389 4.418099641799927 0.1565595269203186 3.6950623989105225 0.458268404006958 C 2.972025156021118 0.7599772810935974 2.315790891647339 1.2016944885253906 1.764125108718872 1.758000135421753 C -0.5888748168945312 4.121000051498413 -0.5878748893737793 7.817000150680542 1.766125202178955 10.170000076293945 L 9.098125457763672 17.501998901367188 C 9.268125459551811 17.800998896360397 9.596125453710556 17.993999481201172 9.973125457763672 17.993999481201172 C 10.127924174070358 17.992495333543047 10.280212998390198 17.954710088670254 10.417760848999023 17.883678436279297 C 10.55530869960785 17.81264678388834 10.674281775951385 17.710348054766655 10.765125274658203 17.584999084472656 L 18.180126190185547 10.170000076293945 C 20.53412628173828 7.815999984741211 20.534125328063965 4.121000051498413 18.178125381469727 1.753999948501587 C 17.62673658132553 1.1987167000770569 16.971028745174408 0.75789675116539 16.248699188232422 0.45688319206237793 C 15.526369631290436 0.15586963295936584 14.751665711402893 0.0005996064865030348 13.969125747680664 0 C 12.48895263671875 0.00024195910373236984 11.062829613685608 0.5562726259231567 9.973125457763672 1.557999849319458 L 9.973125457763672 1.557999849319458 Z M 16.76412582397461 3.1679999828338623 C 18.327125787734985 4.738999962806702 18.32812476158142 7.193000555038452 16.766124725341797 8.756000518798828 L 9.973125457763672 15.54900074005127 L 3.1801249980926514 8.756000518798828 C 1.6181249618530273 7.193000555038452 1.6191251277923584 4.739000201225281 3.1781251430511475 3.1720001697540283 C 3.9381251335144043 2.416000187397003 4.932125210762024 2.000000238418579 5.97712516784668 2.000000238418579 C 7.0221251249313354 2.000000238418579 8.012125670909882 2.4159998297691345 8.766125679016113 3.169999837875366 L 9.266125679016113 3.669999837875366 C 9.358913488686085 3.762945555150509 9.469117224216461 3.8366833999753 9.590432167053223 3.8869941234588623 C 9.711747109889984 3.9373048469424248 9.841791972517967 3.9632012844085702 9.973125457763672 3.9632012844085693 C 10.104458943009377 3.9632012844085702 10.23450380563736 3.9373048469424248 10.355818748474121 3.8869941234588623 C 10.477133691310883 3.8366833999753 10.587337426841259 3.762945555150509 10.68012523651123 3.669999837875366 L 11.18012523651123 3.169999837875366 C 12.69212520122528 1.6609998941421509 15.254125833511353 1.6649999618530273 16.76412582397461 3.1679999828338623 L 16.76412582397461 3.1679999828338623 Z" fill="rgb(200.00000327825546,22.000000588595867,29.000000171363354)"/>
        </svg>